<svg xmlns="http://www.w3.org/2000/svg" width="18" height="18" fill="none" viewBox="0 0 18 18">
  <path fill="currentColor" d="M14.625 2.531h-1.969v-.844a.281.281 0 1 0-.562 0v.844H5.906v-.844a.281.281 0 1 0-.562 0v.844H3.375a.844.844 0 0 0-.844.844v11.25a.844.844 0 0 0 .844.844h11.25a.843.843 0 0 0 .844-.844V3.375a.844.844 0 0 0-.844-.844Zm-11.25.563h1.969v.844a.281.281 0 1 0 .562 0v-.844h6.188v.844a.281.281 0 1 0 .562 0v-.844h1.969a.281.281 0 0 1 .281.281v2.531H3.094V3.375a.281.281 0 0 1 .281-.281Zm11.25 11.812H3.375a.281.281 0 0 1-.281-.281V6.469h11.812v8.156a.282.282 0 0 1-.281.281ZM7.594 8.437v4.5a.281.281 0 0 1-.563 0V8.893l-.718.36a.281.281 0 0 1-.251-.504l1.125-.562a.281.281 0 0 1 .407.252Zm4.218 1.97-1.687 2.25h1.688a.282.282 0 0 1 0 .562h-2.25a.281.281 0 0 1-.226-.45l2.024-2.698a.843.843 0 1 0-1.405-.93.281.281 0 0 1-.486-.282 1.406 1.406 0 1 1 2.342 1.547Z"/>
  <path fill="currentColor" d="M16.125 3H14.5v1H16v11H2V4h1.5V3H1.875A.89.89 0 0 0 1 3.905v11.19a.89.89 0 0 0 .875.905h14.25a.89.89 0 0 0 .875-.905V3.905A.89.89 0 0 0 16.125 3Z"/>
  <path fill="currentColor" d="M4 7h1v1H4V7Zm3 0h1v1H7V7Zm3 0h1v1h-1V7Zm3 0h1v1h-1V7ZM4 9.5h1v1H4v-1Zm3 0h1v1H7v-1Zm3 0h1v1h-1v-1Zm3 0h1v1h-1v-1ZM4 12h1v1H4v-1Zm3 0h1v1H7v-1Zm3 0h1v1h-1v-1Zm3 0h1v1h-1v-1ZM5 5a.5.5 0 0 0 .5-.5v-3a.5.5 0 1 0-1 0v3A.5.5 0 0 0 5 5Zm8 0a.5.5 0 0 0 .5-.5v-3a.5.5 0 0 0-1 0v3a.5.5 0 0 0 .5.5ZM6.5 3h5v1h-5V3Z"/>
</svg>
