<svg width="156" height="24" viewBox="0 0 156 24" fill="none" xmlns="http://www.w3.org/2000/svg">
  <g clip-path="url(#clip0_868_67924)">
    <path d="M1.5 4C1.5 2.34315 2.84315 1 4.5 1H31.5C33.1569 1 34.5 2.34315 34.5 4V20C34.5 21.6569 33.1569 23 31.5 23H4.5C2.84314 23 1.5 21.6569 1.5 20V4Z" fill="url(#paint0_linear_868_67924)"/>
    <path d="M11.9661 11.5433H18.4566C18.399 10.2321 18.0709 8.88235 17.0801 8.015C15.8986 6.98233 13.8304 6.59961 11.9817 6.59961C10.0597 6.59961 7.93171 7.01857 6.74357 8.12823C5.71945 9.0839 5.5 10.6193 5.5 11.9985C5.5 13.4456 5.93225 15.1282 7.04282 16.0952C8.22432 17.1278 10.1373 17.3996 11.9817 17.3996C13.775 17.3996 15.7168 17.0916 16.8916 16.1133C18.062 15.135 18.4677 13.4886 18.4677 11.9985V11.9917H11.9661" fill="white"/>
    <path d="M18.8916 11.9938V17.1595H27.9202V17.1527C29.2414 17.0847 30.2921 15.9728 30.2921 14.6072C30.2921 13.2417 29.2414 12.0573 27.9202 11.9893V11.9938" fill="white"/>
    <path d="M30.128 9.17401C30.128 7.85827 29.1061 6.81427 27.8182 6.81427C27.7296 6.81427 27.6187 6.79842 27.5323 6.80748H18.8916V11.5428H27.9956C29.1882 11.4364 30.128 10.4195 30.128 9.17401Z" fill="white"/>
    <path fill-rule="evenodd" clip-rule="evenodd" d="M31.5 0H4.5C2.29086 0 0.5 1.79086 0.5 4V20C0.5 22.2091 2.29086 24 4.5 24H31.5C33.7091 24 35.5 22.2091 35.5 20V4C35.5 1.79086 33.7091 0 31.5 0ZM1.51549 3.69327C1.66912 2.1805 2.9467 1 4.5 1H31.5C33.1569 1 34.5 2.34315 34.5 4V20C34.5 21.6569 33.1569 23 31.5 23H4.5C4.29289 23 4.09069 22.979 3.8954 22.9391C2.52835 22.6593 1.5 21.4497 1.5 20V4C1.5 3.89645 1.50525 3.79412 1.51549 3.69327Z" fill="#E3E3E3"/>
  </g>
  <g clip-path="url(#clip1_868_67924)">
    <path fill-rule="evenodd" clip-rule="evenodd" d="M51.8753 15.7582H49.7549L48.165 9.69237C48.0895 9.41334 47.9292 9.16667 47.6935 9.0504C47.1053 8.75823 46.4571 8.5257 45.75 8.40843V8.1749H49.1657C49.6371 8.1749 49.9906 8.52571 50.0496 8.93313L50.8745 13.3086L52.9938 8.1749H55.0552L51.8753 15.7582ZM56.2338 15.7582H54.2313L55.8802 8.1749H57.8827L56.2338 15.7582ZM60.4734 10.2757C60.5323 9.86728 60.8859 9.63374 61.2983 9.63374C61.9465 9.5751 62.6526 9.69238 63.2419 9.98354L63.5954 8.35081C63.0062 8.11727 62.358 8 61.7698 8C59.8262 8 58.412 9.05041 58.412 10.5082C58.412 11.6173 59.4137 12.1996 60.1208 12.5504C60.8859 12.9002 61.1805 13.1338 61.1216 13.4835C61.1216 14.0082 60.5323 14.2418 59.9441 14.2418C59.2369 14.2418 58.5298 14.0669 57.8827 13.7747L57.5291 15.4085C58.2362 15.6996 59.0012 15.8169 59.7084 15.8169C61.8876 15.8745 63.2419 14.8251 63.2419 13.25C63.2419 11.2665 60.4734 11.1502 60.4734 10.2757ZM70.2497 15.7582L68.6597 8.1748H66.9518C66.5983 8.1748 66.2447 8.40834 66.1269 8.75814L63.1826 15.7582H65.244L65.6555 14.6501H68.1883L68.424 15.7582H70.2497ZM67.2472 10.2168L67.8354 13.0748H66.1865L67.2472 10.2168Z" fill="#172B85"/>
    <path fill-rule="evenodd" clip-rule="evenodd" d="M71.5 0H44.5C42.2909 0 40.5 1.79086 40.5 4V20C40.5 22.2091 42.2909 24 44.5 24H71.5C73.7091 24 75.5 22.2091 75.5 20V4C75.5 1.79086 73.7091 0 71.5 0ZM41.5155 3.69327C41.6691 2.1805 42.9467 1 44.5 1H71.5C73.1569 1 74.5 2.34315 74.5 4V20C74.5 21.6569 73.1569 23 71.5 23H44.5C44.2929 23 44.0907 22.979 43.8954 22.9391C42.5283 22.6593 41.5 21.4497 41.5 20V4C41.5 3.89645 41.5052 3.79412 41.5155 3.69327Z" fill="#E3E3E3"/>
  </g>
  <g clip-path="url(#clip2_868_67924)">
    <path d="M98 17.3278C96.8084 18.3705 95.2628 19 93.5738 19C89.8051 19 86.75 15.866 86.75 12C86.75 8.13401 89.8051 5 93.5738 5C95.2628 5 96.8084 5.62948 98 6.67221C99.1916 5.62948 100.737 5 102.426 5C106.195 5 109.25 8.13401 109.25 12C109.25 15.866 106.195 19 102.426 19C100.737 19 99.1916 18.3705 98 17.3278Z" fill="#FF2C2C"/>
    <path d="M98 17.3278C99.4672 16.0439 100.398 14.1334 100.398 12C100.398 9.86662 99.4672 7.95614 98 6.67221C99.1916 5.62948 100.737 5 102.426 5C106.195 5 109.25 8.13401 109.25 12C109.25 15.866 106.195 19 102.426 19C100.737 19 99.1916 18.3705 98 17.3278Z" fill="#F9A000"/>
    <path d="M98 6.67221C99.4672 7.95614 100.398 9.86662 100.398 12C100.398 14.1334 99.4672 16.0439 98 17.3278C96.5328 16.0439 95.6025 14.1334 95.6025 12C95.6025 9.86664 96.5328 7.95614 98 6.67221Z" fill="#FF5E00"/>
    <path fill-rule="evenodd" clip-rule="evenodd" d="M111.5 0H84.5C82.2909 0 80.5 1.79086 80.5 4V20C80.5 22.2091 82.2909 24 84.5 24H111.5C113.709 24 115.5 22.2091 115.5 20V4C115.5 1.79086 113.709 0 111.5 0ZM81.5155 3.69327C81.6691 2.1805 82.9467 1 84.5 1H111.5C113.157 1 114.5 2.34315 114.5 4V20C114.5 21.6569 113.157 23 111.5 23H84.5C84.2929 23 84.0907 22.979 83.8954 22.9391C82.5283 22.6593 81.5 21.4497 81.5 20V4C81.5 3.89645 81.5052 3.79412 81.5155 3.69327Z" fill="#E3E3E3"/>
  </g>
  <g clip-path="url(#clip3_868_67924)">
    <path d="M138 17.3278C136.808 18.3705 135.263 19 133.574 19C129.805 19 126.75 15.866 126.75 12C126.75 8.13401 129.805 5 133.574 5C135.263 5 136.808 5.62948 138 6.67221C139.192 5.62948 140.737 5 142.426 5C146.195 5 149.25 8.13401 149.25 12C149.25 15.866 146.195 19 142.426 19C140.737 19 139.192 18.3705 138 17.3278Z" fill="#FF2C2C"/>
    <path d="M138 17.3278C139.467 16.0439 140.398 14.1334 140.398 12C140.398 9.86662 139.467 7.95614 138 6.67221C139.192 5.62948 140.737 5 142.426 5C146.195 5 149.25 8.13401 149.25 12C149.25 15.866 146.195 19 142.426 19C140.737 19 139.192 18.3705 138 17.3278Z" fill="#0099DF"/>
    <path d="M138 6.67221C139.467 7.95614 140.398 9.86662 140.398 12C140.398 14.1334 139.467 16.0439 138 17.3278C136.533 16.0439 135.603 14.1334 135.603 12C135.603 9.86664 136.533 7.95614 138 6.67221Z" fill="#6C6BBD"/>
    <path fill-rule="evenodd" clip-rule="evenodd" d="M151.5 0H124.5C122.291 0 120.5 1.79086 120.5 4V20C120.5 22.2091 122.291 24 124.5 24H151.5C153.709 24 155.5 22.2091 155.5 20V4C155.5 1.79086 153.709 0 151.5 0ZM121.515 3.69327C121.669 2.1805 122.947 1 124.5 1H151.5C153.157 1 154.5 2.34315 154.5 4V20C154.5 21.6569 153.157 23 151.5 23H124.5C124.293 23 124.091 22.979 123.895 22.9391C122.528 22.6593 121.5 21.4497 121.5 20V4C121.5 3.89645 121.505 3.79412 121.515 3.69327Z" fill="#E3E3E3"/>
  </g>
  <defs>
    <linearGradient id="paint0_linear_868_67924" x1="2.62121" y1="23.4545" x2="36.0187" y2="3.03" gradientUnits="userSpaceOnUse">
      <stop stop-color="#24965F"/>
      <stop offset="0.538742" stop-color="#1685B6"/>
      <stop offset="1" stop-color="#1D4171"/>
    </linearGradient>
    <clipPath id="clip0_868_67924">
      <rect width="35" height="24" fill="white" transform="translate(0.5)"/>
    </clipPath>
    <clipPath id="clip1_868_67924">
      <rect width="35" height="24" fill="white" transform="translate(40.5)"/>
    </clipPath>
    <clipPath id="clip2_868_67924">
      <rect width="35" height="24" fill="white" transform="translate(80.5)"/>
    </clipPath>
    <clipPath id="clip3_868_67924">
      <rect width="35" height="24" fill="white" transform="translate(120.5)"/>
    </clipPath>
  </defs>
</svg>
