<svg xmlns="http://www.w3.org/2000/svg" width="18" height="18" fill="none" viewBox="0 0 18 18">
  <path fill="currentColor" d="M15.188 2.79h-3.361V1.71A1.69 1.69 0 0 0 10.139.024H7.896a1.69 1.69 0 0 0-1.688 1.688V2.79H2.812c-.62 0-1.124.503-1.124 1.125v12.937c0 .62.503 1.125 1.125 1.125h12.374c.622 0 1.126-.504 1.126-1.125V3.915c0-.622-.504-1.125-1.125-1.125ZM7.332 1.71c0-.31.252-.562.563-.562h2.243c.31 0 .563.252.563.563V2.79H7.333V1.71Zm7.854 15.142H2.813V3.915h3.395v1.157s-.015.562.56.562c.632 0 .565-.562.565-.562V3.915h3.369v1.157s-.037.565.56.565c.563 0 .565-.565.565-.565V3.915h3.36v12.937Z"/>
</svg>
