<svg xmlns="http://www.w3.org/2000/svg" width="18" height="18" fill="none" viewBox="0 0 18 18">
  <path fill="currentColor" d="M6.75 1.8a.45.45 0 0 1 .45.45v1.8a.45.45 0 0 1-.9 0v-1.8a.45.45 0 0 1 .45-.45ZM3.249 3.249a.45.45 0 0 1 .637 0L5.16 4.522a.45.45 0 1 1-.636.637L3.25 3.886a.45.45 0 0 1 0-.636l-.001-.001Zm7.002 0a.449.449 0 0 1 0 .637L8.977 5.16a.45.45 0 1 1-.637-.637L9.613 3.25a.45.45 0 0 1 .636 0l.002-.001ZM1.8 6.75a.45.45 0 0 1 .45-.45h1.8a.45.45 0 1 1 0 .9h-1.8a.45.45 0 0 1-.45-.45Zm5.976-.18a.9.9 0 0 0-1.476.69v8.191c0 .832 1.03 1.219 1.578.593L9.7 13.96a1.35 1.35 0 0 1 1.016-.46h2.89c.842 0 1.223-1.053.576-1.591l-6.407-5.34v.001ZM7.2 15.453V7.26l6.407 5.34h-2.89a2.249 2.249 0 0 0-1.694.769L7.2 15.453Z"/>
</svg>
