<svg xmlns="http://www.w3.org/2000/svg" width="19" height="18" fill="none" viewBox="0 0 19 18">
  <path fill="currentColor" d="M6.23 2.684a.227.227 0 1 0 0 .453h3.34a.226.226 0 1 0 0-.453H6.23Zm3.34-1.208c.66 0 1.218.441 1.39 1.044l1.957.001c.56.004 1.01.185 1.29.575.239.334.334.765.31 1.248l-.003 11.711c.038.497-.056.936-.295 1.301-.281.426-.74.639-1.307.644H3.076c-.684-.027-1.19-.188-1.508-.548-.294-.334-.423-.792-.417-1.35V4.356c-.012-.54.138-.996.466-1.332.338-.346.839-.5 1.482-.504h1.742a1.442 1.442 0 0 1 1.388-1.044h3.342Zm0 2.869H6.23c-.49 0-.924-.243-1.185-.616H3.103c-.345.002-.542.063-.614.137-.082.084-.13.227-.124.478v11.763c-.003.292.047.47.117.549.048.055.257.121.616.136h9.81c.18-.002.252-.036.294-.098.082-.125.12-.301.099-.593V4.315c.013-.264-.024-.434-.086-.52-.023-.032-.104-.065-.302-.066h-2.157a1.443 1.443 0 0 1-1.186.616M15.73 0c.895 0 1.62.72 1.62 1.61v12.674c0 .89-.726 1.611-1.62 1.611h-1.762v-1.208h1.761c.224 0 .405-.18.405-.403V1.61a.404.404 0 0 0-.405-.403h-6.8a.404.404 0 0 0-.405.403v.14H7.309v-.14c0-.89.725-1.61 1.62-1.61h6.8ZM7.626 10.575c.336 0 .608.27.608.604a.606.606 0 0 1-.608.604H3.98a.605.605 0 0 1-.608-.603c0-.334.273-.605.608-.605h3.646Zm3.647-2.415c.335 0 .608.27.608.604a.607.607 0 0 1-.608.604H3.98a.606.606 0 0 1-.608-.603c0-.334.273-.605.608-.605h7.293Zm0-2.416a.606.606 0 0 1 .56.836.607.607 0 0 1-.56.372H3.98a.606.606 0 0 1-.608-.603c0-.334.273-.605.608-.605h7.293Z"/>
</svg>
