<svg xmlns="http://www.w3.org/2000/svg" width="19" height="18" fill="none" viewBox="0 0 19 18">
  <path fill="currentColor" d="M.813 11.194a.562.562 0 0 1 .562.562v2.813A1.125 1.125 0 0 0 2.5 15.694H16a1.125 1.125 0 0 0 1.125-1.125v-2.813a.563.563 0 0 1 1.125 0v2.813a2.25 2.25 0 0 1-2.25 2.25H2.5a2.25 2.25 0 0 1-2.25-2.25v-2.813a.563.563 0 0 1 .563-.562Z"/>
  <path fill="currentColor" d="M8.852 13.392a.563.563 0 0 0 .796 0l3.375-3.375a.563.563 0 1 0-.796-.797l-2.415 2.416V1.744a.562.562 0 1 0-1.125 0v9.892L6.273 9.22a.563.563 0 0 0-.796.797l3.375 3.375Z"/>
</svg>
