<svg xmlns="http://www.w3.org/2000/svg" width="19" height="18" fill="none" viewBox="0 0 19 18">
  <path fill="currentColor" d="M6.782 5.78 8.5 4.057v7.192a.75.75 0 0 0 1.5 0V4.056l1.717 1.725a.75.75 0 0 0 1.066 0 .75.75 0 0 0 0-1.065l-3-3a.75.75 0 0 0-.248-.158.75.75 0 0 0-.57 0 .75.75 0 0 0-.248.158l-3 3A.753.753 0 1 0 6.784 5.78ZM16 10.499a.75.75 0 0 0-.75.75v3a.75.75 0 0 1-.75.75H4a.75.75 0 0 1-.75-.75v-3a.75.75 0 1 0-1.5 0v3A2.25 2.25 0 0 0 4 16.498h10.5a2.25 2.25 0 0 0 2.25-2.25v-3a.75.75 0 0 0-.75-.75Z"/>
</svg>
