<svg xmlns="http://www.w3.org/2000/svg" width="18" height="18" fill="none" viewBox="0 0 18 18">
  <path fill="currentColor" fill-rule="evenodd" d="M10.003.937h1.744c.896 0 1.61 0 2.181.054.586.056 1.082.173 1.523.443.454.279.836.661 1.114 1.116.27.44.387.936.443 1.522.055.572.055 1.285.055 2.181v.611c0 .638 0 1.146-.029 1.557-.028.421-.088.783-.229 1.12a3.376 3.376 0 0 1-1.826 1.828c-.285.118-.587.18-.93.213l-.016.298c-.03.447-.094.828-.242 1.184a3.563 3.563 0 0 1-1.928 1.927c-.447.186-.94.24-1.562.26a9.525 9.525 0 0 0-.71.038.634.634 0 0 0-.242.062.563.563 0 0 0-.165.173 7.73 7.73 0 0 0-.353.567l-.195.328c-.507.858-1.764.858-2.272 0l-.195-.328a7.73 7.73 0 0 0-.353-.567.563.563 0 0 0-.165-.173.627.627 0 0 0-.242-.062 8.96 8.96 0 0 0-.71-.037c-.621-.02-1.115-.075-1.563-.26a3.563 3.563 0 0 1-1.927-1.928c-.148-.356-.212-.737-.242-1.184-.03-.438-.03-.978-.03-1.66v-.649c0-.957 0-1.716.058-2.323.06-.623.183-1.145.467-1.61a3.567 3.567 0 0 1 1.177-1.176c.464-.285.986-.408 1.608-.467.158-.015.327-.026.506-.035.06-.54.18-1 .432-1.411.278-.454.66-.836 1.115-1.115.441-.27.937-.387 1.522-.442.572-.055 1.285-.055 2.18-.055Zm-4.114 3h2.539c.957 0 1.716 0 2.324.058.622.06 1.144.183 1.609.467.479.294.882.697 1.176 1.176.285.464.408.986.467 1.609.058.607.058 1.366.058 2.323v.877a1.87 1.87 0 0 0 .486-.118 2.249 2.249 0 0 0 1.218-1.218c.073-.179.12-.403.145-.767.026-.369.026-.838.026-1.5V6.28c0-.932 0-1.59-.05-2.103-.048-.503-.138-.806-.282-1.041a2.25 2.25 0 0 0-.742-.743c-.236-.144-.539-.234-1.043-.282-.511-.05-1.17-.05-2.102-.05H10.03c-.931 0-1.59 0-2.102.05-.504.048-.807.138-1.042.282a2.25 2.25 0 0 0-.743.742c-.12.197-.202.438-.254.802Zm-1.536 1.18c-.54.05-.87.148-1.127.305a2.438 2.438 0 0 0-.805.805c-.157.257-.255.587-.307 1.127-.052.548-.052 1.253-.052 2.246v.6c0 .707 0 1.209.027 1.604.027.39.077.634.158.83a2.437 2.437 0 0 0 1.32 1.319c.25.103.573.155 1.167.174h.023c.305.01.569.02.788.045.232.029.461.083.678.21.213.128.368.295.502.48.126.173.254.39.4.636l.206.348a.188.188 0 0 0 .168.092.188.188 0 0 0 .168-.092l.207-.348c.145-.246.274-.464.399-.636.132-.193.303-.357.502-.48a1.73 1.73 0 0 1 .68-.21c.261-.026.523-.04.786-.045h.023c.595-.02.917-.07 1.168-.174a2.436 2.436 0 0 0 1.32-1.32c.08-.195.13-.44.157-.83.028-.394.028-.896.028-1.603v-.6c0-.993 0-1.698-.053-2.246-.052-.54-.149-.87-.306-1.127a2.438 2.438 0 0 0-.805-.805c-.258-.157-.588-.255-1.127-.307-.548-.052-1.254-.052-2.247-.052H6.6c-.993 0-1.698 0-2.246.052" clip-rule="evenodd"/>
</svg>
