<svg xmlns="http://www.w3.org/2000/svg" width="19" height="18" fill="none" viewBox="0 0 19 18">
  <path fill="currentColor" d="M1.375 5.625a2.25 2.25 0 0 1 2.25-2.25h11.25a2.25 2.25 0 0 1 2.25 2.25v6.75a2.25 2.25 0 0 1-2.25 2.25H3.625a2.25 2.25 0 0 1-2.25-2.25v-6.75Zm13.5 7.875A1.125 1.125 0 0 0 16 12.375V9H7.795l1.29 1.29a.563.563 0 0 1-.796.796L7 9.796V13.5h7.875Zm-5.72-5.625H16v-2.25A1.125 1.125 0 0 0 14.875 4.5H7v1.22a1.688 1.688 0 0 1 2.154 2.155Zm-1.592 0A.562.562 0 1 0 7 7.312v.563h.563ZM5.875 5.721V4.5h-2.25A1.125 1.125 0 0 0 2.5 5.625v2.25h1.22a1.688 1.688 0 0 1 2.155-2.154Zm-.563 2.154h.563v-.563a.562.562 0 1 0-.563.563ZM5.08 9H2.5v3.375A1.125 1.125 0 0 0 3.625 13.5h2.25V9.795l-1.29 1.29a.565.565 0 0 1-.918-.613.563.563 0 0 1 .122-.183L5.08 9Z"/>
</svg>
