<svg width="36" height="24" viewBox="0 0 36 24" fill="none" xmlns="http://www.w3.org/2000/svg">
  <g clip-path="url(#clip0_868_67946)">
    <path fill-rule="evenodd" clip-rule="evenodd" d="M17.0301 14.9018V11.8808H18.5893C19.2282 11.8808 19.7674 11.6668 20.2071 11.2445L20.3126 11.1375C21.1156 10.2633 21.0628 8.90151 20.2071 8.09275C19.7792 7.66459 19.193 7.43266 18.5893 7.44456H16.0864V14.9018H17.0301ZM17.0302 10.9651V8.36037H18.6131C18.9531 8.36037 19.2755 8.4912 19.5159 8.72907C20.0259 9.2286 20.0377 10.0611 19.5452 10.5785C19.3049 10.8342 18.9648 10.9769 18.6131 10.9651H17.0302Z" fill="#3C4043"/>
    <path fill-rule="evenodd" clip-rule="evenodd" d="M24.7146 10.1979C24.3102 9.82327 23.7592 9.63298 23.0617 9.63298C22.1649 9.63298 21.4908 9.96599 21.0453 10.6261L21.8776 11.1553C22.1824 10.7034 22.5986 10.4774 23.1261 10.4774C23.4603 10.4774 23.7826 10.6023 24.0347 10.8283C24.2809 11.0424 24.4216 11.3516 24.4216 11.6787V11.8987C24.0581 11.6965 23.6009 11.5895 23.0382 11.5895C22.3817 11.5895 21.8542 11.7441 21.4615 12.0593C21.0687 12.3744 20.8694 12.7907 20.8694 13.32C20.8577 13.8017 21.0629 14.2596 21.4263 14.5688C21.7956 14.9018 22.2645 15.0683 22.8155 15.0683C23.4661 15.0683 23.9819 14.7769 24.3747 14.1941H24.4157V14.9018H25.3184V11.756C25.3184 11.0959 25.1191 10.5726 24.7146 10.1979ZM22.1533 13.9622C21.9598 13.8195 21.8426 13.5875 21.8426 13.3378C21.8426 13.0583 21.9716 12.8264 22.2237 12.642C22.4816 12.4577 22.804 12.3625 23.1851 12.3625C23.7127 12.3566 24.1231 12.4755 24.4162 12.7134C24.4162 13.1178 24.2579 13.4686 23.9472 13.7659C23.6658 14.0514 23.2848 14.212 22.8861 14.212C22.6223 14.2179 22.3644 14.1287 22.1533 13.9622Z" fill="#3C4043"/>
    <path d="M27.3465 17.1437L30.5 9.7995H29.4742L28.0147 13.4627H27.9971L26.5024 9.7995H25.4766L27.5458 14.5747L26.3735 17.1437H27.3465Z" fill="#3C4043"/>
    <path d="M13.7721 11.2267C13.7721 10.9353 13.7486 10.6439 13.7017 10.3584H9.72173V12.0057H12.0019C11.9081 12.535 11.6033 13.0107 11.1578 13.308V14.3785H12.5177C13.3149 13.6351 13.7721 12.535 13.7721 11.2267Z" fill="#4285F4"/>
    <path d="M9.72191 15.4132C10.8591 15.4132 11.8202 15.0326 12.5177 14.3785L11.1578 13.308C10.7768 13.5697 10.2905 13.7184 9.72191 13.7184C8.61994 13.7184 7.68795 12.9631 7.35384 11.9522H5.95293V13.0583C6.66804 14.5033 8.12757 15.4132 9.72191 15.4132Z" fill="#34A853"/>
    <path d="M7.35384 11.9522C7.17797 11.4229 7.17814 10.8461 7.35401 10.3109V9.21073H5.95288C5.34904 10.4179 5.34904 11.8451 5.95288 13.0523L7.35384 11.9522Z" fill="#FBBC04"/>
    <path d="M9.72191 8.54469C10.3257 8.5328 10.9059 8.76473 11.3397 9.18695L12.5472 7.96191C11.7793 7.23641 10.7711 6.83797 9.72191 6.84987C8.12757 6.84987 6.66799 7.76567 5.95288 9.21073L7.35384 10.3168C7.68795 9.29993 8.61994 8.54469 9.72191 8.54469Z" fill="#EA4335"/>
    <path fill-rule="evenodd" clip-rule="evenodd" d="M31.5 0H4.5C2.29086 0 0.5 1.79086 0.5 4V20C0.5 22.2091 2.29086 24 4.5 24H31.5C33.7091 24 35.5 22.2091 35.5 20V4C35.5 1.79086 33.7091 0 31.5 0ZM1.51549 3.69327C1.66912 2.1805 2.9467 1 4.5 1H31.5C33.1569 1 34.5 2.34315 34.5 4V20C34.5 21.6569 33.1569 23 31.5 23H4.5C4.29289 23 4.09069 22.979 3.8954 22.9391C2.52835 22.6593 1.5 21.4497 1.5 20V4C1.5 3.89645 1.50525 3.79412 1.51549 3.69327Z" fill="#E3E3E3"/>
  </g>
  <defs>
    <clipPath id="clip0_868_67946">
      <rect width="35" height="24" fill="white" transform="translate(0.5)"/>
    </clipPath>
  </defs>
</svg>
