<svg xmlns="http://www.w3.org/2000/svg" width="18" height="18" fill="none" viewBox="0 0 18 18">
  <path fill="currentColor" d="M12.516 2.39c-1.477 0-2.76.666-3.516 1.782-.755-1.116-2.04-1.781-3.516-1.781a4.224 4.224 0 0 0-4.218 4.218c0 2.053 1.28 4.19 3.804 6.35a23.535 23.535 0 0 0 3.73 2.602.423.423 0 0 0 .4 0 23.534 23.534 0 0 0 3.73-2.602c2.525-2.16 3.804-4.296 3.804-6.35a4.224 4.224 0 0 0-4.218-4.218ZM9 14.704c-1.154-.666-6.89-4.176-6.89-8.094a3.378 3.378 0 0 1 3.374-3.375c1.426 0 2.624.762 3.126 1.988a.422.422 0 0 0 .78 0c.502-1.226 1.7-1.988 3.126-1.988A3.379 3.379 0 0 1 15.89 6.61c0 3.918-5.737 7.428-6.891 8.094Z"/>
</svg>
