<svg xmlns="http://www.w3.org/2000/svg" width="18" height="18" fill="none" viewBox="0 0 18 18">
  <path fill="currentColor" fill-rule="evenodd" d="M1.35 9.45H2.6v6.3a.45.45 0 0 0 .45.45h11.9a.45.45 0 0 0 .45-.45v-6.3h1.251a.45.45 0 0 0 .297-.788l-7.65-6.75a.45.45 0 0 0-.594 0l-7.65 6.75a.45.45 0 0 0 .297.788Zm1.7-.9h-.51L9 2.85l6.46 5.7h-.51a.45.45 0 0 0-.45.45v6.3h-11V9a.45.45 0 0 0-.45-.45" clip-rule="evenodd"/>
  <path fill="currentColor" fill-rule="evenodd" d="M10.087 10.8h-2.25a.9.9 0 0 0-.9.9v3.6a.9.9 0 0 0 .9.9h2.25a.9.9 0 0 0 .9-.9v-3.6a.9.9 0 0 0-.9-.9Zm-2.25 4.5v-3.6h2.25v3.6h-2.25Z" clip-rule="evenodd"/>
</svg>
