<svg xmlns="http://www.w3.org/2000/svg" width="18" height="18" fill="none" viewBox="0 0 18 18">
  <path fill="currentColor" fill-rule="evenodd" d="m9 15.75.531.53a.748.748 0 0 1-1.063 0l-.004-.006-.013-.012-.046-.048a37.166 37.166 0 0 1-2.622-3.01c-.67-.863-1.354-1.838-1.873-2.8C3.4 9.458 3 8.435 3 7.5c0-3.404 2.694-6 6-6s6 2.596 6 6c0 .936-.401 1.959-.91 2.902-.52.965-1.203 1.94-1.873 2.802a37.171 37.171 0 0 1-2.622 3.01l-.046.048-.013.012-.004.005L9 15.75Zm0-6a2.25 2.25 0 1 0 0-4.5 2.25 2.25 0 0 0 0 4.5Z" clip-rule="evenodd"/>
</svg>
