<svg width="36" height="24" viewBox="0 0 36 24" fill="none" xmlns="http://www.w3.org/2000/svg">
  <g clip-path="url(#clip0_868_67936)">
    <path fill-rule="evenodd" clip-rule="evenodd" d="M15.6058 18.5254L15.8294 16.9843L15.3314 16.9717H12.9533L14.606 5.59931C14.6111 5.56487 14.6278 5.5329 14.6521 5.51016C14.6765 5.48742 14.7076 5.47494 14.7402 5.47494H18.75C20.0813 5.47494 20.9999 5.77552 21.4795 6.36888C21.7044 6.64723 21.8476 6.93819 21.9169 7.25826C21.9896 7.59418 21.9908 7.99547 21.9199 8.485L21.9147 8.5206V8.8343L22.1396 8.97257C22.3289 9.0816 22.4794 9.20635 22.5949 9.34917C22.7872 9.58724 22.9116 9.88977 22.9642 10.2483C23.0185 10.6171 23.0006 11.0561 22.9116 11.553C22.809 12.1245 22.6431 12.6224 22.4191 13.0296C22.2131 13.4049 21.9507 13.7163 21.639 13.9575C21.3414 14.1867 20.9879 14.3607 20.5882 14.4721C20.2009 14.5815 19.7593 14.6367 19.2749 14.6367H18.9629C18.7398 14.6367 18.5231 14.7239 18.3529 14.8803C18.1823 15.0399 18.0695 15.2579 18.0349 15.4964L18.0113 15.6352L17.6163 18.3515L17.5984 18.4512C17.5936 18.4828 17.5855 18.4985 17.5735 18.5091C17.5629 18.5189 17.5475 18.5254 17.5326 18.5254H15.6058Z" fill="#28356A"/>
    <path fill-rule="evenodd" clip-rule="evenodd" d="M22.353 8.55686C22.3411 8.6399 22.3273 8.72475 22.312 8.81195C21.7832 11.7585 19.974 12.7764 17.6635 12.7764H16.4871C16.2045 12.7764 15.9663 12.999 15.9223 13.3015L15.1494 18.6223C15.1208 18.821 15.2619 19 15.4465 19H17.5331C17.7801 19 17.99 18.8052 18.029 18.5407L18.0494 18.4257L18.4423 15.72L18.4676 15.5716C18.506 15.3062 18.7164 15.1113 18.9634 15.1113H19.2755C21.2971 15.1113 22.8797 14.2206 23.3423 11.6429C23.5354 10.5662 23.4354 9.66703 22.9241 9.03469C22.7694 8.84405 22.5775 8.68577 22.353 8.55686Z" fill="#298FC2"/>
    <path fill-rule="evenodd" clip-rule="evenodd" d="M21.7994 8.31763C21.7186 8.29203 21.6352 8.2689 21.5497 8.24798C21.4638 8.22757 21.3758 8.20951 21.2851 8.19366C20.9679 8.13804 20.6203 8.11166 20.248 8.11166H17.1052C17.0277 8.11166 16.9542 8.13063 16.8884 8.16494C16.7434 8.24057 16.6358 8.38949 16.6097 8.57181L15.941 13.1677L15.9223 13.3015C15.9663 12.999 16.2045 12.7764 16.4871 12.7764H17.6635C19.974 12.7764 21.7832 11.7585 22.312 8.81195C22.3273 8.72475 22.3411 8.6399 22.353 8.55686C22.2192 8.4798 22.0738 8.41405 21.9178 8.35791C21.8793 8.34401 21.8395 8.33062 21.7994 8.31763Z" fill="#22284F"/>
    <path fill-rule="evenodd" clip-rule="evenodd" d="M16.6097 8.57181C16.6358 8.38949 16.7434 8.24057 16.8884 8.16494C16.9542 8.13063 17.0277 8.11166 17.1052 8.11166H20.248C20.6203 8.11166 20.9679 8.13804 21.2851 8.19366C21.3758 8.20951 21.4638 8.22757 21.5497 8.24798C21.6352 8.2689 21.7186 8.29203 21.7994 8.31763C21.8395 8.33062 21.8793 8.34401 21.9178 8.35791C22.0738 8.41405 22.2192 8.4798 22.353 8.55686C22.5103 7.468 22.3518 6.72679 21.8094 6.05546C21.2113 5.3163 20.1319 5 18.7507 5H14.7408C14.4587 5 14.218 5.22261 14.1744 5.52565L12.5043 17.015C12.4713 17.2423 12.6329 17.4473 12.8441 17.4473H15.3196L16.6097 8.57181Z" fill="#28356A"/>
    <path fill-rule="evenodd" clip-rule="evenodd" d="M31.5 0H4.5C2.29086 0 0.5 1.79086 0.5 4V20C0.5 22.2091 2.29086 24 4.5 24H31.5C33.7091 24 35.5 22.2091 35.5 20V4C35.5 1.79086 33.7091 0 31.5 0ZM1.51549 3.69327C1.66912 2.1805 2.9467 1 4.5 1H31.5C33.1569 1 34.5 2.34315 34.5 4V20C34.5 21.6569 33.1569 23 31.5 23H4.5C4.29289 23 4.09069 22.979 3.8954 22.9391C2.52835 22.6593 1.5 21.4497 1.5 20V4C1.5 3.89645 1.50525 3.79412 1.51549 3.69327Z" fill="#E3E3E3"/>
  </g>
  <defs>
    <clipPath id="clip0_868_67936">
      <rect width="35" height="24" fill="white" transform="translate(0.5)"/>
    </clipPath>
  </defs>
</svg>
