<svg xmlns="http://www.w3.org/2000/svg" width="18" height="18" fill="none" viewBox="0 0 18 18">
  <path fill="currentColor" d="M0 3.375V4.5h10.688v8.438H7.224a2.242 2.242 0 0 0-2.162-1.688c-1.042 0-1.912.72-2.163 1.688h-.65v-2.813H1.125v3.938H2.9a2.242 2.242 0 0 0 2.163 1.687c1.041 0 1.91-.72 2.162-1.688H11.9a2.242 2.242 0 0 0 2.162 1.688c1.042 0 1.912-.72 2.163-1.688H18V9.476l-.035-.089-1.125-3.375-.122-.386h-4.905v-2.25H0Zm.563 2.25V6.75h5.062V5.625H.562Zm11.25 1.125h4.095l.967 2.883v3.305h-.65a2.242 2.242 0 0 0-2.163-1.688c-1.041 0-1.91.72-2.162 1.688h-.088V6.75ZM1.124 7.875V9H4.5V7.875H1.125Zm3.938 4.5c.628 0 1.125.497 1.125 1.125s-.497 1.125-1.125 1.125A1.116 1.116 0 0 1 3.938 13.5c0-.628.496-1.125 1.124-1.125Zm9 0c.628 0 1.124.497 1.124 1.125s-.496 1.125-1.124 1.125a1.116 1.116 0 0 1-1.126-1.125c0-.628.497-1.125 1.126-1.125Z"/>
</svg>
