<svg xmlns="http://www.w3.org/2000/svg" width="18" height="18" fill="none" viewBox="0 0 18 18">
  <path fill="currentColor" d="m17.342 4.43-3.64-1.987a.417.417 0 0 0-.202-.052h-2.25a.422.422 0 0 0-.422.421 1.828 1.828 0 0 1-3.656 0 .422.422 0 0 0-.422-.421H4.5a.415.415 0 0 0-.203.052L.657 4.43a.968.968 0 0 0-.406 1.304l1.356 2.588a1.011 1.011 0 0 0 .9.537h1.57v5.766a.984.984 0 0 0 .985.984h7.875a.984.984 0 0 0 .985-.984V8.859h1.57a1.011 1.011 0 0 0 .901-.537l1.356-2.588a.968.968 0 0 0-.407-1.304ZM2.506 8.016a.17.17 0 0 1-.154-.085L1 5.344a.128.128 0 0 1 .063-.174l3.016-1.647v4.493H2.506Zm10.572 6.609a.14.14 0 0 1-.14.14H5.061a.14.14 0 0 1-.14-.14V3.235h1.44a2.672 2.672 0 0 0 5.273 0h1.443v11.39ZM17 5.344 15.646 7.93a.17.17 0 0 1-.154.085h-1.57V3.523l3.016 1.646a.128.128 0 0 1 .063.175Z"/>
</svg>
