<svg xmlns="http://www.w3.org/2000/svg" width="25" height="25" fill="none" viewBox="0 0 25 25">
  <path fill="#4285F4" fill-rule="evenodd" d="M24.02 12.771c0-.851-.076-1.67-.218-2.455H12.5v4.642h6.458a5.52 5.52 0 0 1-2.394 3.622v3.011h3.878c2.269-2.09 3.578-5.166 3.578-8.82Z" clip-rule="evenodd"/>
  <path fill="#34A853" fill-rule="evenodd" d="M12.5 24.501c3.24 0 5.956-1.074 7.942-2.907l-3.878-3.01c-1.075.72-2.45 1.145-4.064 1.145-3.125 0-5.77-2.111-6.715-4.948H1.776v3.11A11.995 11.995 0 0 0 12.5 24.5Z" clip-rule="evenodd"/>
  <path fill="#FBBC05" fill-rule="evenodd" d="M5.785 14.778a7.213 7.213 0 0 1-.376-2.28c0-.79.136-1.56.376-2.28V7.11H1.776A11.995 11.995 0 0 0 .5 12.5c0 1.936.464 3.769 1.276 5.389l4.01-3.11Z" clip-rule="evenodd"/>
  <path fill="#EA4335" fill-rule="evenodd" d="M12.5 5.273c1.762 0 3.344.605 4.587 1.794l3.442-3.442C18.451 1.69 15.735.5 12.5.5 7.81.5 3.75 3.19 1.776 7.11l4.01 3.11c.943-2.836 3.589-4.947 6.714-4.947Z" clip-rule="evenodd"/>
</svg>
