<svg xmlns="http://www.w3.org/2000/svg" width="19" height="18" fill="none" viewBox="0 0 19 18">
  <path fill="currentColor" d="M16.8 7.209a.83.83 0 0 0-.729-.58l-4.18-.36a.281.281 0 0 1-.233-.172l-1.634-3.892a.84.84 0 0 0-1.551 0L6.842 6.097a.281.281 0 0 1-.234.171L2.43 6.63a.844.844 0 0 0-.48 1.481l3.171 2.767a.281.281 0 0 1 .09.281l-.953 4.114a.835.835 0 0 0 .329.878.827.827 0 0 0 .927.037l3.593-2.18a.273.273 0 0 1 .287 0l3.593 2.18a.844.844 0 0 0 1.256-.914l-.95-4.116a.282.282 0 0 1 .09-.282l3.17-2.766a.836.836 0 0 0 .248-.901Zm-.617.478-3.17 2.767a.843.843 0 0 0-.27.83l.951 4.114a.281.281 0 0 1-.26.349.27.27 0 0 1-.155-.042l-3.593-2.18a.835.835 0 0 0-.87 0l-3.594 2.18a.271.271 0 0 1-.305-.011.281.281 0 0 1-.11-.296l.95-4.116a.844.844 0 0 0-.268-.83L2.318 7.687a.281.281 0 0 1-.083-.304.281.281 0 0 1 .242-.194l4.18-.361a.844.844 0 0 0 .703-.514L8.993 2.42a.281.281 0 0 1 .514 0l1.633 3.893a.843.843 0 0 0 .703.514l4.18.361a.281.281 0 0 1 .242.194.281.281 0 0 1-.082.304Z"/>
</svg>
