<svg xmlns="http://www.w3.org/2000/svg" width="18" height="18" fill="none" viewBox="0 0 18 18">
  <path fill="currentColor" d="M15.799 2.068a.302.302 0 0 0-.25-.16L2.445 1.91a.301.301 0 0 0-.25.16L.089 6.59c-.04.088.005.16.101.16h17.62c.097 0 .142-.072.101-.16L15.8 2.069Zm.795 5.21a.176.176 0 0 0-.176-.176H1.582a.176.176 0 0 0-.176.175v7.418c0 .097-.079.176-.176.176H.826a.176.176 0 0 0-.176.176v.492c0 .097.08.176.176.176h16.33c.097 0 .176-.08.176-.176v-.492a.176.176 0 0 0-.176-.176h-.386a.176.176 0 0 1-.176-.176V7.277Zm-8.86 2.495c0-.096.08-.175.176-.175h7.664c.097 0 .176.079.176.175v3.938c0 .097-.08.176-.176.176H7.91a.176.176 0 0 1-.176-.176V9.773Zm-5.308 5.098a.176.176 0 0 1-.176-.176V9.773c0-.096.08-.175.176-.175h2.812c.097 0 .176.079.176.175v4.922c0 .097-.079.176-.176.176H2.426Z"/>
</svg>