<svg xmlns="http://www.w3.org/2000/svg" width="18" height="18" fill="none" viewBox="0 0 18 18">
  <path fill="currentColor" d="M7.393 3.857h3.214a1.607 1.607 0 0 0-3.214 0Zm-.964 0a2.571 2.571 0 0 1 5.142 0h4.018a.482.482 0 1 1 0 .964h-.842l-.782 9.388a2.732 2.732 0 0 1-2.723 2.505H6.758a2.733 2.733 0 0 1-2.723-2.505l-.782-9.388H2.41a.482.482 0 1 1 0-.964h4.018ZM4.996 14.13a1.768 1.768 0 0 0 1.762 1.621h4.484a1.768 1.768 0 0 0 1.762-1.621l.776-9.308H4.22l.776 9.308Zm2.558-7.06a.482.482 0 0 1 .482.483v5.464a.482.482 0 1 1-.965 0V7.554a.482.482 0 0 1 .483-.483Zm3.375.483a.482.482 0 0 0-.965 0v5.464a.482.482 0 1 0 .965 0V7.554Z"/>
</svg>
