<svg xmlns="http://www.w3.org/2000/svg" width="18" height="18" fill="none" viewBox="0 0 18 18">
  <path fill="currentColor" d="M16.845 4.5A6.43 6.43 0 0 1 15 5.018a3.224 3.224 0 0 0 1.41-1.785 6.48 6.48 0 0 1-2.04.787C13.778 3.375 12.945 3 12 3a3.214 3.214 0 0 0-3.203 3.218c0 .255.03.502.083.734a9.146 9.146 0 0 1-6.63-3.36 3.183 3.183 0 0 0-.435 1.613c0 1.117.563 2.107 1.433 2.67-.533 0-1.028-.15-1.463-.375v.022a3.22 3.22 0 0 0 2.58 3.158c-.472.13-.967.147-1.448.053a3.21 3.21 0 0 0 3 2.234 6.39 6.39 0 0 1-3.997 1.38 6.54 6.54 0 0 1-.765-.044A9.108 9.108 0 0 0 6.09 15.75c5.91 0 9.158-4.905 9.158-9.157 0-.143 0-.278-.008-.42.63-.45 1.17-1.02 1.605-1.673Z"/>
</svg>
