<svg xmlns="http://www.w3.org/2000/svg" width="19" height="18" fill="none" viewBox="0 0 19 18">
  <path fill="currentColor" d="M16.251 7.5h-.5v-3a.5.5 0 0 0-.5-.5h-12a.5.5 0 0 1-.5-.41v-.18a.5.5 0 0 1 .5-.41h11.79a.5.5 0 1 0 0-1H3.251a1.5 1.5 0 0 0-1.5 1.5 1.54 1.54 0 0 0 0 .18v10.285A2.05 2.05 0 0 0 3.816 16h11.435a.5.5 0 0 0 .5-.5v-3h.5a.5.5 0 0 0 .5-.5V8a.5.5 0 0 0-.5-.5Zm-1.5 7.5H3.816a1.055 1.055 0 0 1-1.065-1.035V4.94c.163.047.331.067.5.06h11.5v2.5h-3.5a2.5 2.5 0 1 0 0 5h3.5V15Zm1-3.5h-4.5a1.5 1.5 0 0 1 0-3h4.5v3Z"/>
</svg>
