<svg xmlns="http://www.w3.org/2000/svg" width="18" height="18" fill="none" viewBox="0 0 18 18">
  <path fill="currentColor" fill-rule="evenodd" d="M9 3c.641 0 1.299.017 1.937.043l.753.036.72.043.675.046.617.048a2.851 2.851 0 0 1 2.62 2.567l.03.319.056.683c.053.707.092 1.478.092 2.215 0 .737-.039 1.508-.091 2.216l-.057.682-.03.319a2.852 2.852 0 0 1-2.621 2.567l-.615.047-.675.047-.721.043-.753.036c-.646.027-1.291.042-1.937.043a46.314 46.314 0 0 1-1.936-.043l-.753-.037-.721-.042-.675-.047-.617-.047a2.851 2.851 0 0 1-2.62-2.567l-.03-.319-.056-.682A30.492 30.492 0 0 1 1.5 9c0-.737.039-1.508.091-2.215l.057-.683.03-.319a2.851 2.851 0 0 1 2.62-2.567l.615-.048.675-.046.722-.042.753-.037A46.247 46.247 0 0 1 9 3ZM7.5 7.181v3.638a.45.45 0 0 0 .675.39l3.15-1.819a.45.45 0 0 0 0-.78l-3.15-1.818a.45.45 0 0 0-.675.39Z" clip-rule="evenodd"/>
</svg>
